<mxfile host="app.diagrams.net" agent="Mozilla/5.0 (Windows NT 10.0; Win64; x64) AppleWebKit/537.36 (KHTML, like Gecko) Chrome/133.0.0.0 Safari/537.36" version="26.1.0">
  <diagram name="第 1 页" id="wnsHqfoXr9yZJOO32v4b">
    <mxGraphModel dx="1050" dy="557" grid="1" gridSize="10" guides="1" tooltips="1" connect="1" arrows="1" fold="1" page="1" pageScale="1" pageWidth="827" pageHeight="1169" math="0" shadow="0">
      <root>
        <mxCell id="0" />
        <mxCell id="1" parent="0" />
        <mxCell id="_QfYLOmLNW20UiBtgT7q-2" value="&lt;h1 style=&quot;margin-top: 0px;&quot;&gt;数据同步-非实时&lt;/h1&gt;&lt;p&gt;&lt;font style=&quot;font-size: 14px;&quot;&gt;风险管控&lt;/font&gt;&lt;/p&gt;&lt;p&gt;&lt;font size=&quot;3&quot;&gt;隐患治理（安全检查）&lt;/font&gt;&lt;/p&gt;&lt;p&gt;&lt;font size=&quot;3&quot;&gt;危大工程&lt;/font&gt;&lt;/p&gt;&lt;p&gt;&lt;font size=&quot;3&quot;&gt;纳管项目&lt;/font&gt;&lt;/p&gt;&lt;p&gt;&lt;font size=&quot;3&quot;&gt;教育培训（三级教育、专项教育、技术交底）&lt;/font&gt;&lt;/p&gt;&lt;p&gt;&lt;font size=&quot;3&quot;&gt;劳务管理（协作单位、工人、特种作业）&lt;/font&gt;&lt;/p&gt;" style="text;html=1;whiteSpace=wrap;overflow=hidden;rounded=0;strokeColor=default;spacing=8;" vertex="1" parent="1">
          <mxGeometry x="20" y="70" width="380" height="240" as="geometry" />
        </mxCell>
        <mxCell id="_QfYLOmLNW20UiBtgT7q-13" value="" style="group" vertex="1" connectable="0" parent="1">
          <mxGeometry x="160" y="350" width="60" height="63" as="geometry" />
        </mxCell>
        <mxCell id="_QfYLOmLNW20UiBtgT7q-4" value="" style="outlineConnect=0;dashed=0;verticalLabelPosition=bottom;verticalAlign=top;align=center;html=1;shape=mxgraph.aws3.mysql_db_instance_2;fillColor=#2E73B8;gradientColor=none;" vertex="1" parent="_QfYLOmLNW20UiBtgT7q-13">
          <mxGeometry width="60" height="63" as="geometry" />
        </mxCell>
        <mxCell id="_QfYLOmLNW20UiBtgT7q-6" value="&lt;font style=&quot;color: rgb(255, 255, 255); font-size: 15px;&quot;&gt;交科院&lt;/font&gt;" style="text;html=1;align=center;verticalAlign=middle;whiteSpace=wrap;rounded=0;" vertex="1" parent="_QfYLOmLNW20UiBtgT7q-13">
          <mxGeometry y="28" width="60" height="30" as="geometry" />
        </mxCell>
        <mxCell id="_QfYLOmLNW20UiBtgT7q-14" value="" style="group" vertex="1" connectable="0" parent="1">
          <mxGeometry x="160" y="440" width="60" height="63" as="geometry" />
        </mxCell>
        <mxCell id="_QfYLOmLNW20UiBtgT7q-7" value="" style="outlineConnect=0;dashed=0;verticalLabelPosition=bottom;verticalAlign=top;align=center;html=1;shape=mxgraph.aws3.mysql_db_instance_2;fillColor=#2E73B8;gradientColor=none;" vertex="1" parent="_QfYLOmLNW20UiBtgT7q-14">
          <mxGeometry width="60" height="63" as="geometry" />
        </mxCell>
        <mxCell id="_QfYLOmLNW20UiBtgT7q-8" value="&lt;font style=&quot;color: rgb(255, 255, 255); font-size: 15px;&quot;&gt;云岭&lt;/font&gt;" style="text;html=1;align=center;verticalAlign=middle;whiteSpace=wrap;rounded=0;" vertex="1" parent="_QfYLOmLNW20UiBtgT7q-14">
          <mxGeometry y="28" width="60" height="30" as="geometry" />
        </mxCell>
        <mxCell id="_QfYLOmLNW20UiBtgT7q-15" value="" style="group" vertex="1" connectable="0" parent="1">
          <mxGeometry x="160" y="530" width="60" height="63" as="geometry" />
        </mxCell>
        <mxCell id="_QfYLOmLNW20UiBtgT7q-9" value="" style="outlineConnect=0;dashed=0;verticalLabelPosition=bottom;verticalAlign=top;align=center;html=1;shape=mxgraph.aws3.mysql_db_instance_2;fillColor=#2E73B8;gradientColor=none;" vertex="1" parent="_QfYLOmLNW20UiBtgT7q-15">
          <mxGeometry width="60" height="63" as="geometry" />
        </mxCell>
        <mxCell id="_QfYLOmLNW20UiBtgT7q-10" value="&lt;font style=&quot;color: rgb(255, 255, 255); font-size: 15px;&quot;&gt;公建&lt;/font&gt;" style="text;html=1;align=center;verticalAlign=middle;whiteSpace=wrap;rounded=0;" vertex="1" parent="_QfYLOmLNW20UiBtgT7q-15">
          <mxGeometry y="28" width="60" height="30" as="geometry" />
        </mxCell>
        <mxCell id="_QfYLOmLNW20UiBtgT7q-16" value="" style="group" vertex="1" connectable="0" parent="1">
          <mxGeometry x="160" y="620" width="60" height="63" as="geometry" />
        </mxCell>
        <mxCell id="_QfYLOmLNW20UiBtgT7q-11" value="" style="outlineConnect=0;dashed=0;verticalLabelPosition=bottom;verticalAlign=top;align=center;html=1;shape=mxgraph.aws3.mysql_db_instance_2;fillColor=#2E73B8;gradientColor=none;" vertex="1" parent="_QfYLOmLNW20UiBtgT7q-16">
          <mxGeometry width="60" height="63" as="geometry" />
        </mxCell>
        <mxCell id="_QfYLOmLNW20UiBtgT7q-12" value="&lt;font style=&quot;color: rgb(255, 255, 255); font-size: 15px;&quot;&gt;管理处&lt;/font&gt;" style="text;html=1;align=center;verticalAlign=middle;whiteSpace=wrap;rounded=0;" vertex="1" parent="_QfYLOmLNW20UiBtgT7q-16">
          <mxGeometry y="28" width="60" height="30" as="geometry" />
        </mxCell>
        <mxCell id="_QfYLOmLNW20UiBtgT7q-17" value="" style="group" vertex="1" connectable="0" parent="1">
          <mxGeometry x="160" y="710" width="60" height="63" as="geometry" />
        </mxCell>
        <mxCell id="_QfYLOmLNW20UiBtgT7q-18" value="" style="outlineConnect=0;dashed=0;verticalLabelPosition=bottom;verticalAlign=top;align=center;html=1;shape=mxgraph.aws3.mysql_db_instance_2;fillColor=#2E73B8;gradientColor=none;" vertex="1" parent="_QfYLOmLNW20UiBtgT7q-17">
          <mxGeometry width="60" height="63" as="geometry" />
        </mxCell>
        <mxCell id="_QfYLOmLNW20UiBtgT7q-19" value="&lt;font color=&quot;#ffffff&quot;&gt;&lt;span style=&quot;font-size: 15px;&quot;&gt;通用&lt;/span&gt;&lt;/font&gt;" style="text;html=1;align=center;verticalAlign=middle;whiteSpace=wrap;rounded=0;" vertex="1" parent="_QfYLOmLNW20UiBtgT7q-17">
          <mxGeometry y="28" width="60" height="30" as="geometry" />
        </mxCell>
        <mxCell id="_QfYLOmLNW20UiBtgT7q-20" value="" style="group" vertex="1" connectable="0" parent="1">
          <mxGeometry x="690" y="350" width="60" height="63" as="geometry" />
        </mxCell>
        <mxCell id="_QfYLOmLNW20UiBtgT7q-21" value="" style="outlineConnect=0;dashed=0;verticalLabelPosition=bottom;verticalAlign=top;align=center;html=1;shape=mxgraph.aws3.mysql_db_instance_2;fillColor=#2E73B8;gradientColor=none;" vertex="1" parent="_QfYLOmLNW20UiBtgT7q-20">
          <mxGeometry width="60" height="63" as="geometry" />
        </mxCell>
        <mxCell id="_QfYLOmLNW20UiBtgT7q-22" value="&lt;font color=&quot;#ffffff&quot;&gt;&lt;span style=&quot;font-size: 15px;&quot;&gt;集团&lt;/span&gt;&lt;/font&gt;" style="text;html=1;align=center;verticalAlign=middle;whiteSpace=wrap;rounded=0;" vertex="1" parent="_QfYLOmLNW20UiBtgT7q-20">
          <mxGeometry y="28" width="60" height="30" as="geometry" />
        </mxCell>
        <mxCell id="_QfYLOmLNW20UiBtgT7q-23" value="" style="group" vertex="1" connectable="0" parent="1">
          <mxGeometry x="690" y="470" width="80" height="63" as="geometry" />
        </mxCell>
        <mxCell id="_QfYLOmLNW20UiBtgT7q-24" value="" style="outlineConnect=0;dashed=0;verticalLabelPosition=bottom;verticalAlign=top;align=center;html=1;shape=mxgraph.aws3.mysql_db_instance_2;fillColor=#2E73B8;gradientColor=none;" vertex="1" parent="_QfYLOmLNW20UiBtgT7q-23">
          <mxGeometry width="80" height="63" as="geometry" />
        </mxCell>
        <mxCell id="_QfYLOmLNW20UiBtgT7q-25" value="&lt;font color=&quot;#ffffff&quot;&gt;&lt;span style=&quot;font-size: 15px;&quot;&gt;关键工程&lt;/span&gt;&lt;/font&gt;" style="text;html=1;align=center;verticalAlign=middle;whiteSpace=wrap;rounded=0;" vertex="1" parent="_QfYLOmLNW20UiBtgT7q-23">
          <mxGeometry y="28" width="80" height="30" as="geometry" />
        </mxCell>
        <mxCell id="_QfYLOmLNW20UiBtgT7q-28" value="" style="group" vertex="1" connectable="0" parent="1">
          <mxGeometry x="430" y="535.5" width="60" height="84.5" as="geometry" />
        </mxCell>
        <mxCell id="_QfYLOmLNW20UiBtgT7q-26" value="" style="shape=image;verticalLabelPosition=bottom;labelBackgroundColor=default;verticalAlign=top;aspect=fixed;imageAspect=0;image=data:image/jpeg,/9j/4AAQSkZJRgABAQEAeAB4AAD/4QBaRXhpZgAATU0AKgAAAAgABQMBAAUAAAABAAAASgMDAAEAAAABAAAAAFEQAAEAAAABAQAAAFERAAQAAAABAAASdFESAAQAAAABAAASdAAAAAAAAYagAACxj//bAEMACAYGBwYFCAcHBwkJCAoMFA0MCwsMGRITDxQdGh8eHRocHCAkLicgIiwjHBwoNyksMDE0NDQfJzk9ODI8LjM0Mv/bAEMBCQkJDAsMGA0NGDIhHCEyMjIyMjIyMjIyMjIyMjIyMjIyMjIyMjIyMjIyMjIyMjIyMjIyMjIyMjIyMjIyMjIyMv/AABEIAOAA4AMBIgACEQEDEQH/xAAcAAEAAQUBAQAAAAAAAAAAAAAABQcBCAYDBAL/xAA8EAABAwICBgYIBgIDAQEAAAABAgMABAURBiEHQTESUXQ2sRMUkSJxsmGBVJOhQjJSwdEjcvAXYmPSFv/EABsBAAEFAQEAAAAAAAAAAAAAAAACBQQGAwEH/8QAMxEAAQMCAggGAgEEAwAAAAAAAQACAwQRBRIhcTGxMzJhUUETBiKhkYEU4UIVI8Fi8PH/2gAMAwEAAhEDEQA/ANdzXVVCM33ZKX3EpFW5gAsgDSZDeMqvmXvqGSmbuuN36W52mQkZHk5yvUaVjfIZo8BuC7eMqvmXvqGPGVXzL31DOERNyt8jey7+MqvmXvqGPGVXzL31DOEQuUZG9l38ZVfMvfUMeMqvmXvqGcIhcoyN7Lv4yq+Ze+oY8ZVfMvfUM4RC5Rkb2XfxlV8y99Qx4yq+Ze+oZwiFyjI3su/jKr5l76hjxlV8y99QzhELlGRvZd/GVXzL31DHjKr5l76hnCIXKMjey7+MqvmXvqGPGVXzL31DOEQuUZG9l38ZVfMvfUMeMqvmXvqGcIhcoyN7Lv4yq+Ze+oY8ZVfMvfUM4RC5Rkb2XfxlV8y99Qx4yq+Ze+oZwiFyjI3su/jKr5l76hjxlV8y99QzhELlGRvZd/GVXzL31DJTLdXUqzRaUmodINYyCCsnH0xISSuWOtdn6az7YimE5gsaho8l+jwO4rvm7rjd+ludsg9knM3dcbv0tztkHsnJOcrtLwI9Q3BIiIlSEiI+MEJEvgYw5wXFaI37tMuBjBdGnYrREQXEiIwghIl8PfLQXUiIghIiXw9flBcVol8JbCCEiXIIEtBdSIiCEkrljrXZ+ms+2JFSVyx1rs/TWfbEUzmCxqOC/UdxXfN3XG79Lc7ZB7JOZu643fpbnbIPZCTnKTS8CPUNwSIgb4lSEktYcu3HMdcKW3s8ahpWs6EoHNR2T4sNmfzBeWLdTD03TpVsQkbz8JkrYbDRZetbVDRNhKUD0lkektW0mSKeAyG52JkxfFhRNyMF3n46laDZtTVCwkLu1c7UL/QyeBP8mTp1V5UKOEUTgP6g+rHtkvmHNtoy0zxV1SA6RillGlavhNRRrntBeKVW+sS3+sYH7SbanZoNlWmyYtVf5GFxHTQPwF4b1qZb7tTtmuCkLAJDNSMQfdxDdKV3S01tmrV0dewpl9P4Tt945iZM2TMNrzFS9/bqtDoH5k44KSfeN88ObcqUmaLUumdCUVCdLL+GlCtnw/mIlpmOGZik0WOVEEnlVekfRCxnOGj1S09FbSu0NW7S1CCh5lZQpJ2EGcNmMbVdWkOAIV94Amy2rIGY7u0HaegUho7lvK4AfOb3qtyXTro0X+5MpdUvRTNrGhIB/N6+UqucAMccBh5SbDSZm5nqsYl6gMMhigANvE/6Cxuumr/MloZU8/blLaTpK2VBYA+E1k48PumW+IUnRpBlJ9aWSadFGq/25lLamyPEtoTgFg/j9fOE1JlbmaUYb6gM0oiqBa+wjR9hUegT6IGJwnaipHa2sZpmEFbrqwhCRtJ0SErOSALnYu1rtVbea5FHQMKeeVsTsHMyqlk1NN92h29V6lKIB7mnGAHrUd/wE3jKWVKLK1qRTtBK6hQxefI0rP8AE9d6zDbMvUnf3GqS0D+VG9SvcBtjlFSsaLvVLrcdqKiTyqTQOm0qBGqzKaW+E0TpP6i+rHtkFd9TVA8lS7TXu07mxD3ppPux3j7zqvXPaO+4EUFWpv8AWSkfabfl7NtnzK0VUFSO9AxUyv0Vp+EXaB+jQoplxalHmOLgOukLHe/ZeuOXK3wtxZKFHSlY0pWOYMitkylv9hosxWt2hrWuILT6Kx+ZCuYmNl/sz9gvNTbqnStpWhQGhaTuI9YkKeAxm42KzYRiwrGljxZ4+dSjIiJHT0klcsda7P01n2xIqSuWOtdn6az7YimcwWNRwX6juK75u643fpbnbIPZJzN3XG79Lc7ZB7ISc5SaXgR6huCS4lpcbiYlSFWDUvaUdxX3ZQ/sKgwg8hvMqBmq+t5ey5VXDEcaEYNJ5rO4f7ymsaoFoXlB0D8yalWPkMJ963m3VZMSpGPCipQpeHL0h2kR0YS2nuOyoFU0T4vkk2ZgPwqGVtbU3Grcqqt1Tr7h4lrUcSZ5tI3S/wCE+ufMa732q+taGgAC2pSlhvdXYLszcKRagttQKkg6Fp2pImTtsr2brbaaup1cTT7YWNPP/TMTwDjiNkyS1dNOs5CtSXseItkjHkVEj7YSdRONy1Vb1PAzIyX+q9tY/hUz1wWxukzPTVjaQkVbJK8NqknDHyIlOfwqlWtdqkl6zJ/Fg4fh6MpNvx9UwqABKU64M9z6Fl+qyoy+yhjLltabw4E0zYGH+IlLtcN4r2bnSW1t5xqlLHeKCFYd4rEjThywHnNv1bZgZvWVadjvEmqo0Bp1G0Abj6iJN33LNqzHTIaudMHCj8iwcFIx5GT3N8yH2lVCCVtFXl07b2J+fFU11PXm4PXKrtjjzj1GGe8SFknuzjho9x/aVQzCy3UZduLTgBQqncCsf8TONjy1astsKbtlMGi5hxrJKlK9ZMhtZOYGLNlSoY7wCrrEllpAOnA6FK9WGP2g1vlxe5cqJW1teHU7bXI/9WOw0D4SpOp20t1d/qbg6ji8I2A3jsUo4Y+QlNzoUJWDUmUGnu6fx8bZ+GBkCnAdKFb8be6OgfbUqm3Kvatdrqa59QDbDZWff/v7zGS+Xurv13fr6tZK3FHhSdyE7ABK/wCsRpx7Il1SzjxBsKOHIKBP2xmNyseI75vWuNw3wTV6YhZkfN/Ve2pBhpxnooq2pt9W3U0ry2X2iFIWk4EYftPMNMunScJBvbSrUWhwykXB+dayfyte0Ziy5SXEEca0YOpGxY0K+80DXNaEFmguyU/2cXcOEbRgSOwyb1QtON5NUpePC5UrKPVgB24z41wLQjJzYJGKqtHD5KxjpIS6nuVQqVop8XDI9ma34VBTviDEa1fkkrljrXZ+ms+2JFSVyx1rs/TWfbEUzmCyqOC/UdxXfN3XG79Lc7ZB7JOZu643fpbnbIPZCTnKTS8CPUNwSXG6WiJW52KqWpy9oprlVWd1eAqR3rWP6hvHl2Srl1trN3tNTQVCQpt9soPxG8dsxYpKp6hq2qqnWW32lBSFDYRMhcl56o8zUSGnFoZuSE/2sk4cX/ZPMRxpZQW5HKm4/QyMm/biGg2vbwIVEMx5XuWWa1dPWtKLZOLb4HoLHr2GQYGMy1fp2atlTNQyh1pQ0pWMQfhIhGTcttvF5NmpOPn3cS+i0+0rWn9TAMAmZc9FQ3JmSq7M1xbUppbdvbUC88oYBQ5J54zIlllFOyhltIShtISlKdAAE+2222kBDaEpQkYAJGAE+gQoaDjjyMkwwiIWG1MeJYlJXPDnCwGwLHzWffG7zm1TbKuJmiR3AI3FWJKj56PhNIG8yq2sPV0thTt4szJW0oldQwkaUHapI2jmJSmNs7XB5Lld8JlgfSsEB0N39VIWe811iuDdbb3lNOp0HkociNomQuSczuZssi65ymDDjbpaUEqxCiADj95jXgdsrrqb0ZSqelq9lM1o3HPbwTd6kp4zTeaW+4EC6n875nXlOxprm6YPuOOhpIUrADEE4nymPd4vVffq9dbXvKddVuBOhI5AbBKya5eqNN0tPsqlCsJ2sec2XwR6cp2Cn87L7iSL9E3zedVt+RZ80hh9fCxWp7kknQFY+j/Hxmj4AiVW1daulPlu9XlpSEIUF09Or8W0KV+wmNO1xeC0bE5YtLAylc2c6CPs+Cq+8y3UMOMupC23ElKkkaCDvmO2c8mV2WLk6pLKnLc4oll5KcQkY7lciJkYSEpJJAE+HGkPNFt1CVoI0gjEERylhEosqPhuJS0MmZouDtCxJwk5lzK1yzNXJYoWiGxgXH1D0ED17T7pkCvJuXFvh5dmpC5jjj3cmKdhikYDVOyhptO5CEhIHlIzKI39x0J7n9TAxkQssevgvParczaLXS0FOnBphsIHvw2/vKSa472ipuFNZ2l4+GHeu4HRxHcPLtm9Z0zzRZZonG23EPXJSf62QfynmrkJj1V1T1dWO1L7hcedUVrWdpM7VSgNyNWeA0Ej5f25vx1J8V5zEGI3q5pJXLHWuz9NZ9sSKkrljrXZ+ms+2IpnMFjUcF+o7iu+buuN36W52yD2Sczd1xu/S3O2QeyEnOUml4EeobgkRESpCTqw+5TOpdZWtDiDxJUlWBB5zlEFwgHat+tetvMNClLdUGK1sbXE8K/MfxJxWu13u/RsaOPmak4ezKSxNhUSDYU2SYPQvNzGPkbit2u+tHMV2ZWwhxukZUMClhOBI/yOJ8sJK6v9YqrU6i13d1S6FZwbeUcVNE8zylNAcJ9A4CcEzw7NdLkwukfCYQwAHsstkqQ82CkhSFjQdhEo5rB1cKpnV3eyMFTKyC9TIGJQSd6Ry908+rzWG7bVNWe6KW7SrUEMOk4lonRgfd2StwEcfZUMVNP7OD1PQ/RCoZYNUV1uQQ/c3k0LChiEAcbh+G4SrOWMs0mVbYuho3HHELcLilOYYlRwGz1STq6ynoadT9U8hplAxKlqwAmjXDW9l2kcKKdFTV4fibQAnzJEGsih1omqMQxMkBpLewGj7/lbNmbLNJmq2JoKxx1tCXA4lTZ0ggEbfXKS5g1SXW2oW/a3hXMJBJRhwuAe4bjNzoNb2Xqx0NvoqaTH8TqAU+YM3ulqqeup0VFK8h1lYxStBxBnXMim1rkNTX4ZoIs3sdn/AH8qj+r3VwqocTdr20pDSDizTLGBUR+JQ5e6VjJQy2VHBKEjHHcABPvQPhKI6w9YbtxedtFpcW1RtkofcGgukHAgf9YkllOzQlAVOMVOnZ8AL51gaxFXV1y1Wd5SaFJAceQSFOkHYdgH3kVZtaGYbQ0hhTjdWwgYJTUDEgcuIaZpe3sltsb3TPLs11cY8KpWwiEsBA77dd9qqynXa/3eCrIgr5pqSB7MhLprbzFXIU3TBiibOjFtPErzM0Ebj+8DAcvOdM8pGkpEeEUDDdrBfrcro8+7UOqdecU44s4qUs4kn1zniMMANMEaMcJaYpzAsLJERBdSSuWOtdn6az7YkVJXLHWuz9NZ9sRTOYLGo4L9R3Fd83dcbv0tztkHsk5m7rjd+ludsg9kJOcpNLwI9Q3BIiIlSEiIghIiIIQHCXGjSJYS43GCFUPVLl1u7X5y5VKOJmhwUkHcXDu8tJlcaqqZoqR2qqFhtppBWtRO4CaFqcpktZQefw9J2pVifUAJ6NbVYulySppskGofQ2cOWlR7I6Q/4ocyoOIE1uJ+VfRcAavFUmzhnCtzTc1qU4pFC2ohhncMOZ5maziccY2y0bXOLjcq8QQMgjEcYsAr4nnNmyZnCtytdEKS4pdC4oB9jYRzHIiaxLp0GDXFpuF2eFk7DHILgrLOkqWa6kaqmHA4y6gLQsbiDKGa17C3acyNVlMjhZrklagBoDgPpfsZv2qSuXWZKS04cTTvLbHq0Eds2DMeV7dmhllm4BzhZVxILauEgnRvjo9pmiuqFSTDDK8hxOUGx728CsYtOnRJXLthq8x3dq30iPSUcVuEaG07VGVn/wCIss6fSrdP/sP/AJk5lvJtoyst9duDvE8AFqdXxHAbBoEiso3Zvcnyo9SQeUfIvm8LjRvXly/q+sNhYAFKiqqfxPvpCjj7huAk8/ZrXUt92/b6VaN2CmU/xI3N2Ym8r2F24KQHHcQhpB3KUd3w0GU+yxrYr6y9tUl3aYFPULCEraSQUE7tukSWXRMIYVXo6aurGOqQSQOtj1sF8591aU9HRvXeyJUltscbtKPSAG0p/iUowGPumW6kJcQUKAKVAgg7QZjHm+2ItGa7lRNDBtt3FA5BQ4gPvIlXC1vuCsPp/EZJwYJTcjSD07KCiIkNWVJK5Y612fprPtiRUlcsda7P01n2xFM5gsqjgv1HcV3zd1xu/S3O2QeyTmbuuN36W52yD2Qk5yk0vAj1DcEiIiVISIiCEiIghBLjbGBj1QQq76nKlLuUHmMRxNVKsR6wDO+tmjXVZJU82MTTvocOHLSk9s0TVLmJu1Xx23VK+FmuwSgncHBu89IlcKqlZrqR2lfQFtOoKVgjeDHSK0sOVUHEAaLE/NtouCNXisTN8tNnzhk+tytc1pLal0LiiWHt4w5HkZrJGnCNrmlpsVeIJ454xJGbgq0unfGB5TZsm5Prc03RCUtqRQtqBff3ADkOZMGtLjYLs8zIGGSQ2AVWNUlCukyWl1wYGoeW4PVoA7JsGY80W7K7LL1wLnC8rgQGk8RJGndJWkpmqGkapWGw2y0kIQgbgBulDNa1/bu2ZGqOmXxM0KShRx0Fwn0v2EdHu8mKyoVJD/c68lwOUm5728At9/5dyzp9Gt0f+I/+pOZbzlaM0rfRbi7xMgFaXUcJwO0aZjNp06ZLZev1Xly7tXCkX6STgtsnQ4nakyKysfmGZPlR6bg8o+RfN4XOjcshM3ZdbzRYXbepYbdxC2lkaEqG74b5T/LGqavpL21V3d5g09OsLShlRJWRu2aBN1y/rBsN+YBFUilqdymH1BJx9x3ESefvNrpmi4/caVCN+Knk/wAyWWxPIeVXo6muo2OpQCAelz1sV61LS2gqUQEpBJJ2ATGPN9zRd813KtaOLbjuCDzCRwg/ab5n3WXT1lG9aLIpSm3BwO1Q9EEbQn+ZSjEY+6RKuZrvaFYfT+HSQAzyixOgDp3XzERIasqSVyx1rs/TWfbEipK5Y612fprPtiKZzBZVHBfqO4rvm7rjd+ludsg9knM3dcbv0tztkHshJzlJpeBHqG4JEREqQkRAghJffGGmbPlfI11zSS5TBLFKk4KfdHo/DnOtaXGwWM08cLC+U2AWsAGXw5StTGpW1JawfulWt07UISkeWmXtmp2ho72ioqa5VVRN+kGVI4VFWzEg7pI/Vk7JoOP0QBsTo6H4UBq81eO3FTV4uqVtUyFBbLRGBdw0gnkO2VtE+AEMN4ABCEJ0bAAJRzWDrHXUuOWmxvlLKCA9UtqwKyDuSeXvk32UzFWSanGanZo+AFV+qo6eup109Uyh1lQwUhYxBmjXDVDl2rcLlOuppMfwtrBT5KBmmWDW7dLclDFzZTXsJHDxg8LgHr3Hym7U+tzLTyMXPFsq/SpnH7ic82GQXdtWpoMUonEQ3t/x0j6/hc6DVDl6jdDj66mrw/C4sBPkBN7paWnoadFPSsoZZQMEoQMAJpFRrdyyyglvxbyuSWcO0iaRmDW5dbkhbFrZTQsKGBWTxOEe47hDzYYxoXP7fida60oNuuj4/hV00Hbv2yiOsPV47bnXbvaW1u0bhUt9saSyScSRzT2T0avdY6qZ1NpvbylsrODNS4cSknYo8vfKxkIebKTgtChhgdIIh7KhmhIBqcHqenwQsSNvZB3ypWsDV4q0uuXW0MlVCojjZRiVNEnYP0n7SLs2q3MN2bQ8ttujYWMQp8+kR/iNPnG4wvDstlcY8VpHQiYvAB77dVtq0kbjpgadOjylWRqSeDem+J4+QpiR7UhLpqkzDQoU5TFitbGnBtXCryMUYJQNISI8YoHmzXj83G9aCT75adXmHad1TTzam3EHBSVjAg+qc8BhiDpmKcgbi6tERBKSSuWOtdn6az7YkVJXLHWuz9NZ9sRTOYLGo4L9R3Fd83dcbv0tztkHsk5m7rjd+ludsg9kJOcpNLwI9Q3BIiIlSElwNBlp9J5bILikLFa1Xm+UVuSeHxDoQVchtPbMnrdbqe1W9mho0BtllISkDR8Zj5q3cQ3nu2FZwBWpI9ZSQPvMjjuOmONE0ZS5Ur1LK8zMjOwC/wArWbrn7L1luPgaytIfH5whBUEf5ETYKSqYrqZuppnUusuDFC0nEETGjMVouVBmKtZqmHi6p9agrgJ7wEnAjnjK3atLdWWzJlO1WpW24pa3Etr3oSToHu5/GaQzPe8tIUbEcMgpqZksb7k2/OpQutu9XS2W6kpqNfdU9VxJedSfSOG5I5AjGUP2bt0rdrmdbFgoGVH+xVTxJ9QSce0SiO5J9ch1fEsrF6eDf0gQ22k/mytjLjDD80+YkZPivt0RjgNAwlpfEwRbsr4gCVW1daxVMd3Zb06paFqCKeoV+HYEq/Yyk4OG6bzqtsKLzmkPvJ4mKId6oEaCrH0R56fhNoC4PAadqbcWigkpXOnGgD6PgsgsMQQQCJzcdSy0XHVpQgDSScAIeebpmHH3VBLbaSpSidwG+Y7ZzznXZmuTqEvKbtraiGWknAKGO9XMmOUswiF1SMNw6Wukyt0AbSq4Lznlxt7uV3mkC92HeSYp6hmrZS7TvNutq3LQoKB8piUDhJzLmabnlmvS/QuktnAOMKPoLHq2H3yM2tJPuGhPc/pkCMmF9yO/iq350yNRZmoXHG20M3JCf63wMOI8lcxMe6uleoax2mqGy280ooWhWwiZTWq4s3e10twp1YtPthY92Oz9pSTXHZEU1wprw0jDxI7p3AaOIbj5dk7VRAtztWeA18jJf1Jdnh0I8FSwxBiN6uaSVyx1rs/TWfbEipK5Y612fprPtiKZzBY1HBfqO4rvm7rjd+ludsg9knM3dcbv0tztkHshJzlJpeBHqG4JEREqQkboiC4vRR1T1FWM1VOopdZWFoI5iZJZSzRSZntDTzLqPFIQO/Zx9JCvVy98xlnqoq+rttQKiiqXad0DDjbVgZvBOYj0TVimFtrmCxs4bD/orK8toUQVJBI3EjdPipqGaOncqKh1DTLYxUtasAB7zMfWNaWamGg2a1pzAYBTjIJ85C3nNN6vwKbjcHHWyce7GCUeQks1jANA0quRemqgvs9wA+/pSusDNP8A+mv3EwT4KmxQxo/NzV8ZqPugy0b3OLnZirlTwMgiETNgSIiJW6REQQkrDqSCBTXdR/OVtj4YGUelSdTl2bpL/VW91fD4tsFGP6k6ewzemIEoJTTjbC+heB0P0VUrWI66xkS6qZJ4i2EnDkVAH7YzG5WPEcJlbcqFq6WupoX0gtvtlB0bv9/aYyXyyVdhu79BVoIW2o8Kti07FAzetabh3gmn0xMzI+H+q99ajBol06DjAw04z0UVFU3CrbpqVlbz7pCUISMScf2kG19CtRcGjMTYD41quWqB1xzJqkrx4W6laUerQe3GfOuBCFZObJAxTVo4fJWM2fK1kRl3LlJbgBxoRi6obVnSr7zQNc13QGaC0pV/Zxd+4BsGBA7THSQFtPYqhUrhUYuHx7M1/wAKjpiDviNavySVyx1rs/TWfbEipK5Y612fprPtiKZzBZVHBfqO4rvm7rjd+ludsg9knM3dcbv0tztkHshJzlJpeBHqG4JEREqQkREEJL7paIIX1xD9MtiOUtEEXKREQQkREEJERBCT0UVW7Q1jNSwsodaWFoUNhE88CC4QCLHYsmspZro802puoaUEVKRwvMk6UH+J671l625hpO4uNKl0D8q9AUn3g7JjRa7rW2avRWUD6mXk7U7RyMqpZNcrfdoavVApKgAO+pziD60nd8DHKKqY4ZXqlVuBVFPJ5tJpHTaF7V6mLR33Givq0t/oISfvNvy9lKz5aaKaCmHekYKeX6S1fGRA1p5TU3xGtdB/SWFY9kgrvrloGUqRaaB2oc2Le9BI9+G8/aLvAzToUUxYtVDy3BxHXQFvl/v1Fl21u11a7whCfRQPzLVyExsv95fv95qbjU6Fuq0JG5CRuA+E+79mG45jrfFXF4rUNCUDQlA5ASK2SFPOZDYbFZsIwkUbS95u8/GpWiIkdPSSVyx1rs/TWfbEipK5Y612fprPtiKZzBY1HBfqO4rvm7rjd+ludsg9knM3dcbv0tztkHshJzlJpeBHqG4JEREqQkREEJERBCREQQkREEJERBCREQQkREEJL4+vzloguK+MtjEQQrkkiWiILqREQQklcsda7P01n2xIqSuWOtdn6az7YimcwWNRwX6juK75u643fpbnbIPZJzN3XG79Lc7ZB7ISc5SaXgR6huCRERKkJERBCREQQkREEJERBCREQQkREEJERBCREQQkREEJERBCREQQklcsda7P01n2xIqSuWOtdn6az7YimcwWNRwX6juK/9k=;" vertex="1" parent="_QfYLOmLNW20UiBtgT7q-28">
          <mxGeometry width="60" height="60" as="geometry" />
        </mxCell>
        <mxCell id="_QfYLOmLNW20UiBtgT7q-27" value="&lt;font style=&quot;font-size: 15px;&quot;&gt;Kettle&lt;/font&gt;" style="text;html=1;align=center;verticalAlign=middle;whiteSpace=wrap;rounded=0;" vertex="1" parent="_QfYLOmLNW20UiBtgT7q-28">
          <mxGeometry y="54.5" width="60" height="30" as="geometry" />
        </mxCell>
        <mxCell id="_QfYLOmLNW20UiBtgT7q-29" style="edgeStyle=orthogonalEdgeStyle;rounded=0;orthogonalLoop=1;jettySize=auto;html=1;exitX=1;exitY=0.25;exitDx=0;exitDy=0;entryX=0;entryY=0.5;entryDx=0;entryDy=0;curved=1;" edge="1" parent="1" source="_QfYLOmLNW20UiBtgT7q-6" target="_QfYLOmLNW20UiBtgT7q-26">
          <mxGeometry relative="1" as="geometry" />
        </mxCell>
        <mxCell id="_QfYLOmLNW20UiBtgT7q-30" style="edgeStyle=orthogonalEdgeStyle;rounded=0;orthogonalLoop=1;jettySize=auto;html=1;exitX=1;exitY=0.25;exitDx=0;exitDy=0;entryX=0;entryY=0.5;entryDx=0;entryDy=0;curved=1;" edge="1" parent="1" source="_QfYLOmLNW20UiBtgT7q-8" target="_QfYLOmLNW20UiBtgT7q-26">
          <mxGeometry relative="1" as="geometry" />
        </mxCell>
        <mxCell id="_QfYLOmLNW20UiBtgT7q-32" style="edgeStyle=orthogonalEdgeStyle;rounded=0;orthogonalLoop=1;jettySize=auto;html=1;exitX=1;exitY=0.25;exitDx=0;exitDy=0;entryX=0;entryY=0.5;entryDx=0;entryDy=0;curved=1;" edge="1" parent="1" source="_QfYLOmLNW20UiBtgT7q-12" target="_QfYLOmLNW20UiBtgT7q-26">
          <mxGeometry relative="1" as="geometry" />
        </mxCell>
        <mxCell id="_QfYLOmLNW20UiBtgT7q-33" style="edgeStyle=orthogonalEdgeStyle;rounded=0;orthogonalLoop=1;jettySize=auto;html=1;exitX=1;exitY=0.25;exitDx=0;exitDy=0;entryX=0;entryY=0.5;entryDx=0;entryDy=0;curved=1;" edge="1" parent="1" source="_QfYLOmLNW20UiBtgT7q-10" target="_QfYLOmLNW20UiBtgT7q-26">
          <mxGeometry relative="1" as="geometry" />
        </mxCell>
        <mxCell id="_QfYLOmLNW20UiBtgT7q-34" style="edgeStyle=orthogonalEdgeStyle;rounded=0;orthogonalLoop=1;jettySize=auto;html=1;exitX=1;exitY=0.25;exitDx=0;exitDy=0;entryX=0;entryY=0.5;entryDx=0;entryDy=0;curved=1;" edge="1" parent="1" source="_QfYLOmLNW20UiBtgT7q-19" target="_QfYLOmLNW20UiBtgT7q-26">
          <mxGeometry relative="1" as="geometry" />
        </mxCell>
      </root>
    </mxGraphModel>
  </diagram>
</mxfile>
